<?xml version="1.0" encoding="utf-8"?>
<!-- Generator: Adobe Illustrator 24.3.0, SVG Export Plug-In . SVG Version: 6.00 Build 0)  -->
<svg version="1.1" id="Layer_1" xmlns="http://www.w3.org/2000/svg" xmlns:xlink="http://www.w3.org/1999/xlink" x="0px" y="0px"
	 viewBox="0 0 1357.99 313.35" style="enable-background:new 0 0 1357.99 313.35;" xml:space="preserve">
<g>
	<g>
		<g>
			<path d="M430.27,164.62h-91.84V74.42h91.84c4.74,0,9.07,1.16,12.99,3.49c3.92,2.33,7.05,5.45,9.37,9.37
				c2.33,3.92,3.49,8.25,3.49,12.99v38.5c0,4.74-1.16,9.07-3.49,12.99c-2.33,3.92-5.45,7.05-9.37,9.37
				C439.34,163.46,435.01,164.62,430.27,164.62z M430.27,145.94c2.01,0,3.7-0.69,5.06-2.08c1.36-1.38,2.04-3.08,2.04-5.09v-38.5
				c0-2.01-0.68-3.7-2.04-5.06c-1.36-1.36-3.05-2.04-5.06-2.04h-73.16v52.78H430.27z"/>
			<path d="M542.24,164.62h-43.97c-4.74,0-9.07-1.16-12.99-3.49c-3.92-2.33-7.05-5.45-9.37-9.37c-2.33-3.92-3.49-8.25-3.49-12.99
				v-22.02c0-4.74,1.16-9.06,3.49-12.96c2.33-3.9,5.45-7.01,9.37-9.34c3.92-2.33,8.25-3.49,12.99-3.49h43.97
				c4.74,0,9.07,1.16,12.99,3.49c3.92,2.33,7.05,5.44,9.37,9.34c2.33,3.9,3.49,8.22,3.49,12.96v22.02c0,4.74-1.16,9.07-3.49,12.99
				c-2.33,3.92-5.45,7.05-9.37,9.37C551.31,163.46,546.98,164.62,542.24,164.62z M542.24,145.94c2.01,0,3.71-0.69,5.09-2.08
				c1.38-1.38,2.08-3.08,2.08-5.09v-22.02c0-1.97-0.69-3.65-2.08-5.03c-1.38-1.38-3.08-2.08-5.09-2.08h-43.97
				c-2.01,0-3.71,0.69-5.1,2.08c-1.38,1.38-2.08,3.06-2.08,5.03v22.02c0,2.01,0.69,3.71,2.08,5.09c1.38,1.38,3.08,2.08,5.1,2.08
				H542.24z"/>
			<path d="M674.03,164.62h-64.35c-4.74,0-9.07-1.16-12.99-3.49c-3.92-2.33-7.05-5.45-9.37-9.37c-2.33-3.92-3.49-8.25-3.49-12.99
				v-22.02c0-4.74,1.16-9.06,3.49-12.96c2.33-3.9,5.45-7.01,9.37-9.34c3.92-2.33,8.25-3.49,12.99-3.49h64.35v18.68h-64.35
				c-2.01,0-3.71,0.69-5.1,2.08c-1.38,1.38-2.08,3.06-2.08,5.03v22.02c0,2.01,0.69,3.71,2.08,5.09c1.38,1.38,3.08,2.08,5.1,2.08
				h64.35V164.62z"/>
			<path d="M785.87,164.62h-26.42l-27.49-27.49h-23.02v27.49h-18.68V74.42h18.68v44.03h23.02l27.49-27.49h26.42l-36.86,36.8
				L785.87,164.62z"/>
			<path d="M882.81,164.62h-63.16c-4.74,0-9.07-1.16-12.99-3.49c-3.92-2.33-7.05-5.45-9.37-9.37c-2.33-3.92-3.49-8.25-3.49-12.99
				v-24.72c0-4.28,1.16-8.17,3.49-11.67c2.33-3.5,5.46-6.28,9.4-8.33c3.94-2.05,8.3-3.08,13.08-3.08h40.95
				c4.82,0,9.19,1.03,13.12,3.08c3.92,2.06,7.05,4.82,9.37,8.3c2.33,3.48,3.49,7.38,3.49,11.7v23.09h-74.23v1.64
				c0,2.01,0.69,3.71,2.08,5.09c1.38,1.38,3.08,2.08,5.1,2.08h63.16V164.62z M868.03,118.45v-4.4c0-0.92-0.65-1.89-1.95-2.89
				c-1.3-1.01-3.08-1.51-5.35-1.51h-40.95c-2.27,0-4.05,0.5-5.35,1.51c-1.3,1.01-1.95,1.97-1.95,2.89v4.4H868.03z"/>
			<path d="M921.49,164.62h-18.68V90.96h18.68v4.09c1.17-1.8,2.36-2.94,3.55-3.4c1.2-0.46,2.4-0.69,3.62-0.69h36.86v18.68h-36.86
				c-2.01,0-3.71,0.69-5.1,2.08c-1.38,1.38-2.08,3.06-2.08,5.03V164.62z"/>
			<path d="M1128.77,164.62h-18.68v-47.87c0-1.97-0.69-3.65-2.08-5.03c-1.38-1.38-3.08-2.08-5.09-2.08h-32.96
				c-2.01,0-3.71,0.69-5.1,2.08c-1.38,1.38-2.08,3.06-2.08,5.03v47.87h-18.68v-47.87c0-1.97-0.69-3.65-2.08-5.03
				c-1.38-1.38-3.08-2.08-5.1-2.08h-32.96c-2.01,0-3.69,0.67-5.03,2.01c-1.34,1.34-2.06,3.04-2.14,5.1v47.87h-18.68V90.96h18.68
				v4.28c1.17-1.93,2.36-3.12,3.55-3.59c1.2-0.46,2.4-0.69,3.62-0.69h32.96c6.08,0,11.6,1.99,16.54,5.98
				c4.95-3.98,10.44-5.98,16.48-5.98h32.96c4.78,0,9.12,1.16,13.02,3.49c3.9,2.33,7.01,5.44,9.34,9.34
				c2.33,3.9,3.49,8.22,3.49,12.96V164.62z"/>
			<path d="M1165.82,87.25h-18.68V68.57h18.68V87.25z M1165.82,164.62h-18.68V90.96h18.68V164.62z"/>
			<path d="M1277.91,164.62h-18.68v-47.87c0-1.97-0.69-3.65-2.08-5.03c-1.38-1.38-3.08-2.08-5.1-2.08h-41.2
				c-2.06,0-3.75,0.67-5.1,2.01c-1.34,1.34-2.03,3.04-2.08,5.1v47.87H1185V90.96h18.68v4.47c1.17-2.01,2.36-3.26,3.55-3.74
				c1.2-0.48,2.4-0.72,3.62-0.72h41.2c4.78,0,9.12,1.16,13.02,3.49c3.9,2.33,7.01,5.44,9.34,9.34c2.33,3.9,3.49,8.22,3.49,12.96
				V164.62z"/>
			<path d="M1357.99,164.62h-36.86c-4.74,0-9.07-1.16-12.99-3.49c-3.92-2.33-7.05-5.45-9.37-9.37c-2.33-3.92-3.49-8.25-3.49-12.99
				V74.42h18.68v16.54h38.5v18.68h-38.5v29.13c0,2.01,0.69,3.71,2.08,5.09c1.38,1.38,3.08,2.08,5.09,2.08h36.86V164.62z"/>
		</g>
		<g>
			<path style="fill:#0025FF;" d="M388.19,236.38h-44.52v-41.27h42.01c2.17,0,4.15,0.53,5.94,1.6c1.79,1.06,3.22,2.49,4.29,4.29
				c1.07,1.8,1.6,3.78,1.6,5.94c0,1.5-0.1,2.79-0.3,3.87c-0.2,1.08-0.67,2.24-1.4,3.47c1.32,1.15,2.35,2.51,3.09,4.07
				c0.74,1.56,1.11,3.21,1.11,4.94v1.27c0,2.17-0.53,4.15-1.6,5.94c-1.06,1.79-2.49,3.22-4.27,4.29
				C392.36,235.85,390.37,236.38,388.19,236.38z M385.68,211.49c0.92,0,1.69-0.32,2.32-0.95s0.94-1.41,0.94-2.33v-1.27
				c0-0.92-0.31-1.69-0.94-2.32c-0.62-0.62-1.4-0.93-2.32-0.93h-33.47v7.8H385.68z M388.19,227.84c0.92,0,1.7-0.32,2.33-0.95
				c0.63-0.63,0.95-1.41,0.95-2.33v-1.27c0-0.9-0.32-1.67-0.95-2.3c-0.63-0.63-1.41-0.95-2.33-0.95h-35.97v7.8H388.19z"/>
			<path style="fill:#0025FF;" d="M436.85,236.38H418c-2.17,0-4.15-0.53-5.94-1.6c-1.79-1.06-3.22-2.49-4.29-4.29
				c-1.06-1.79-1.6-3.77-1.6-5.94v-21.87h8.55v21.87c0,0.92,0.32,1.7,0.95,2.33c0.63,0.63,1.41,0.95,2.33,0.95h18.85
				c0.92,0,1.7-0.32,2.33-0.95c0.63-0.63,0.95-1.41,0.95-2.33v-21.87h8.55v21.87c0,2.17-0.53,4.15-1.6,5.94
				c-1.07,1.79-2.49,3.22-4.27,4.29S439.04,236.38,436.85,236.38z"/>
			<path style="fill:#0025FF;" d="M465.19,200.99h-8.55v-8.55h8.55V200.99z M465.19,236.38h-8.55v-33.7h8.55V236.38z"/>
			<path style="fill:#0025FF;" d="M482.52,236.38h-8.55v-41.27h8.55V236.38z"/>
			<path style="fill:#0025FF;" d="M533.02,236.38h-30.68c-2.17,0-4.15-0.53-5.94-1.6s-3.22-2.49-4.29-4.29
				c-1.07-1.79-1.6-3.77-1.6-5.94v-10.07c0-2.17,0.53-4.14,1.6-5.93c1.06-1.78,2.49-3.21,4.29-4.27c1.79-1.06,3.77-1.6,5.94-1.6
				h18.85c1.11,0,2.21,0.15,3.28,0.46v-8.03h8.55V236.38z M524.48,227.84v-13.35c-0.02-0.94-0.34-1.72-0.95-2.33
				c-0.61-0.61-1.39-0.92-2.33-0.92h-18.85c-0.92,0-1.7,0.32-2.33,0.95c-0.63,0.63-0.95,1.4-0.95,2.3v10.07
				c0,0.92,0.32,1.7,0.95,2.33c0.63,0.63,1.41,0.95,2.33,0.95H524.48z"/>
			<path style="fill:#0025FF;" d="M594.26,236.38h-24.2c-2.17,0-4.15-0.53-5.94-1.6c-1.79-1.06-3.22-2.49-4.29-4.29
				c-1.06-1.79-1.6-3.77-1.6-5.94v-1.27c0-1.73,0.37-3.38,1.11-4.95c0.74-1.57,1.78-2.94,3.12-4.09c-0.75-1.21-1.22-2.36-1.42-3.44
				c-0.2-1.08-0.3-2.37-0.3-3.87c0-2.17,0.53-4.15,1.6-5.94c1.07-1.79,2.49-3.22,4.29-4.29c1.79-1.07,3.77-1.6,5.94-1.6h24.4v8.58
				h-24.4c-0.92,0-1.69,0.31-2.32,0.93c-0.62,0.62-0.93,1.4-0.93,2.32v1.27c0,0.92,0.31,1.7,0.93,2.33s1.4,0.95,2.32,0.95h40.03
				v8.55h-6.5v4.52c0,2.17-0.53,4.15-1.6,5.94c-1.06,1.79-2.49,3.22-4.29,4.29C598.41,235.85,596.43,236.38,594.26,236.38z
				 M594.26,227.84c0.92,0,1.7-0.32,2.33-0.95c0.63-0.63,0.95-1.41,0.95-2.33v-4.52h-27.48c-0.92,0-1.7,0.32-2.33,0.95
				c-0.63,0.63-0.95,1.4-0.95,2.3v1.27c0,0.92,0.32,1.7,0.95,2.33c0.63,0.63,1.41,0.95,2.33,0.95H594.26z"/>
			<path style="fill:#0025FF;" d="M678.72,236.38h-42.01v-41.27h42.01c2.17,0,4.15,0.53,5.94,1.6c1.79,1.06,3.22,2.49,4.29,4.29
				c1.06,1.8,1.6,3.78,1.6,5.94v17.61c0,2.17-0.53,4.15-1.6,5.94c-1.07,1.79-2.49,3.22-4.29,4.29
				C682.87,235.85,680.89,236.38,678.72,236.38z M678.72,227.84c0.92,0,1.69-0.32,2.32-0.95c0.62-0.63,0.94-1.41,0.94-2.33v-17.61
				c0-0.92-0.31-1.69-0.94-2.32c-0.62-0.62-1.4-0.93-2.32-0.93h-33.47v24.14H678.72z"/>
			<path style="fill:#0025FF;" d="M738.72,236.38h-28.89c-2.17,0-4.15-0.53-5.94-1.6c-1.79-1.06-3.22-2.49-4.29-4.29
				c-1.07-1.79-1.6-3.77-1.6-5.94v-11.31c0-1.96,0.53-3.74,1.6-5.34c1.06-1.6,2.5-2.87,4.3-3.81c1.8-0.94,3.8-1.41,5.99-1.41h18.73
				c2.21,0,4.21,0.47,6,1.41c1.79,0.94,3.22,2.21,4.29,3.8c1.06,1.59,1.6,3.38,1.6,5.35v10.56h-33.96v0.75
				c0,0.92,0.32,1.7,0.95,2.33c0.63,0.63,1.41,0.95,2.33,0.95h28.89V236.38z M731.96,215.26v-2.01c0-0.42-0.3-0.86-0.89-1.32
				c-0.59-0.46-1.41-0.69-2.45-0.69h-18.73c-1.04,0-1.85,0.23-2.45,0.69c-0.6,0.46-0.89,0.9-0.89,1.32v2.01H731.96z"/>
			<path style="fill:#0025FF;" d="M756.42,243.92h-8.55v-41.27h30.68c2.19,0,4.17,0.53,5.96,1.6c1.78,1.06,3.21,2.49,4.27,4.29
				c1.07,1.79,1.6,3.78,1.6,5.94v10.07c0,2.17-0.53,4.15-1.6,5.94c-1.06,1.79-2.49,3.22-4.27,4.29c-1.78,1.06-3.77,1.6-5.96,1.6
				H759.7c-1.11,0-2.21-0.15-3.28-0.46V243.92z M778.55,227.84c0.92,0,1.7-0.32,2.33-0.95c0.63-0.63,0.95-1.41,0.95-2.33v-10.07
				c0-0.92-0.32-1.69-0.95-2.32s-1.41-0.93-2.33-0.93h-22.13v13.32c0.02,0.96,0.34,1.74,0.95,2.36c0.61,0.62,1.39,0.92,2.33,0.92
				H778.55z"/>
			<path style="fill:#0025FF;" d="M806.86,236.38h-8.55v-41.27h8.55V236.38z"/>
			<path style="fill:#0025FF;" d="M846.81,236.38h-20.12c-2.17,0-4.15-0.53-5.94-1.6c-1.79-1.06-3.22-2.49-4.29-4.29
				c-1.07-1.79-1.6-3.77-1.6-5.94v-10.07c0-2.17,0.53-4.14,1.6-5.93c1.06-1.78,2.49-3.21,4.29-4.27c1.79-1.06,3.77-1.6,5.94-1.6
				h20.12c2.17,0,4.15,0.53,5.94,1.6c1.79,1.07,3.22,2.49,4.29,4.27c1.07,1.78,1.6,3.76,1.6,5.93v10.07c0,2.17-0.53,4.15-1.6,5.94
				c-1.06,1.79-2.49,3.22-4.29,4.29C850.96,235.85,848.98,236.38,846.81,236.38z M846.81,227.84c0.92,0,1.7-0.32,2.33-0.95
				c0.63-0.63,0.95-1.41,0.95-2.33v-10.07c0-0.9-0.32-1.67-0.95-2.3c-0.63-0.63-1.41-0.95-2.33-0.95h-20.12
				c-0.92,0-1.7,0.32-2.33,0.95c-0.63,0.63-0.95,1.4-0.95,2.3v10.07c0,0.92,0.32,1.7,0.95,2.33c0.63,0.63,1.41,0.95,2.33,0.95
				H846.81z"/>
			<path style="fill:#0025FF;" d="M896.56,244.79h-30.68v-8.55h30.68c1.51,0,2.51-0.92,2.99-2.76c-0.98,0.25-1.98,0.37-2.99,0.37
				h-18.85c-2.17,0-4.15-0.53-5.94-1.6c-1.79-1.06-3.22-2.49-4.29-4.27c-1.07-1.78-1.6-3.77-1.6-5.96v-19.37h8.55v19.37
				c0,0.92,0.32,1.7,0.95,2.33s1.41,0.95,2.33,0.95h18.85c0.92,0,1.7-0.32,2.33-0.95s0.95-1.41,0.95-2.33v-19.37h8.55v29.44
				c0,2.46-0.53,4.64-1.6,6.55c-1.06,1.91-2.49,3.41-4.27,4.5C900.74,244.24,898.75,244.79,896.56,244.79z"/>
		</g>
	</g>
	<g>
		<g>
			<path style="fill:#0025FF;" d="M38.55,232.24c-7.76-16.12-12.11-34.18-12.11-53.28c0-33.97,13.75-64.68,36.02-86.95
				c19.92-19.91,46.59-32.98,76.3-35.53v-11.5c-32.86,2.58-62.43,16.98-84.38,38.94C30.06,108.23,15,141.86,15,178.96
				c0,21.02,4.84,40.93,13.45,58.66L38.55,232.24z"/>
			<path style="fill:#0025FF;" d="M160.04,56.48c29.71,2.55,56.39,15.62,76.3,35.53c22.26,22.27,36.01,52.98,36.02,86.95
				c0,19.05-4.33,37.06-12.05,53.14l10.04,5.49c8.61-17.72,13.44-37.63,13.44-58.64c0-37.09-15.05-70.73-39.36-95.03
				c-21.96-21.96-51.53-36.37-84.38-38.94L160.04,56.48z"/>
			<path style="fill:#0025FF;" d="M249.43,250.42c-3.94,5.51-8.31,10.7-13.09,15.49c-22.27,22.26-52.98,36.01-86.95,36.02
				c-33.97,0-64.68-13.76-86.95-36.02c-4.74-4.75-9.07-9.89-12.99-15.36l-10.19,5.44c4.51,6.44,9.56,12.46,15.1,18
				c24.3,24.31,57.94,39.37,95.03,39.36c37.09,0,70.73-15.05,95.03-39.36c5.55-5.55,10.61-11.58,15.12-18.03L249.43,250.42z"/>
		</g>
		<g>
			<path style="fill:#0025FF;" d="M195.49,96.53l-42.86-24.75V35.76V22.65l3.45,9.66l12.81-12.82L149.4,0l-19.5,19.49l16.26,16.26
				v36.04L103.3,96.53v53.23l46.1,26.61l46.1-26.61V96.53z M145.71,165.73l-35.03-20.23v-41.04l35.03,16.39V165.73z M188.12,145.51
				l-35.03,20.23v-44.88l35.03-16.38V145.51z"/>
			<path style="fill:#0025FF;" d="M53.53,183.16l0,49.49l-24.18,12.9L18,252.1l6.64-7.81L7.13,239.6L0,266.23l26.63,7.14l5.95-22.21
				l24.18-12.9L99.62,263l46.1-26.61l0-53.23l-46.1-26.61L53.53,183.16z M138.35,232.12l-35.54,20.52l-3.32-38.54l38.86-22.44
				L138.35,232.12z M134.66,185.28l-38.87,22.44l-31.71-22.15l35.54-20.52L134.66,185.28z"/>
			<path style="fill:#0025FF;" d="M291.67,239.6l-22.21,5.95l-24.18-13.24l0-49.49l-46.1-26.61l-46.1,26.61l0,53.23l46.1,26.61
				l42.86-24.75l24.18,13.23l11.35,6.55l-10.09-1.84l4.7,17.5l26.62-7.13L291.67,239.6z M199.17,164.73l35.54,20.52L203,207.39
				l-38.86-22.44L199.17,164.73z M195.99,252.31l-35.54-20.52l0-40.45l38.87,22.44L195.99,252.31z"/>
		</g>
	</g>
</g>
<g>
</g>
<g>
</g>
<g>
</g>
<g>
</g>
<g>
</g>
<g>
</g>
<g>
</g>
<g>
</g>
<g>
</g>
<g>
</g>
<g>
</g>
<g>
</g>
<g>
</g>
<g>
</g>
<g>
</g>
</svg>
